<svg width="186" height="160" viewBox="0 0 186 160" fill="none" xmlns="http://www.w3.org/2000/svg">
<path fill-rule="evenodd" clip-rule="evenodd" d="M107.112 39.0012C105.578 39.0012 104.274 39.5661 103.36 40.5962C102.454 41.6152 102 43.0108 102 44.5553C102 47.2382 103.332 49.3759 105.024 51.0386C106.709 52.6939 108.828 53.9529 110.582 54.8944C110.711 54.9633 110.853 54.9996 110.998 55C111.143 55.0004 111.285 54.965 111.414 54.8968C113.17 53.9652 115.288 52.6963 116.974 51.0324C118.666 49.3649 120 47.2198 120 44.5553C120 43.0047 119.544 41.6103 118.637 40.5913C117.721 39.5637 116.417 39 114.888 39C113.597 39 112.529 39.491 111.716 40.4165C111.439 40.7373 111.198 41.09 111 41.4675C110.802 41.09 110.561 40.7373 110.284 40.4165C109.471 39.491 108.403 39.0012 107.112 39.0012Z" fill="#FDA0A5"/>
<path fill-rule="evenodd" clip-rule="evenodd" d="M121.112 19.0012C119.578 19.0012 118.274 19.5661 117.36 20.5962C116.454 21.6152 116 23.0108 116 24.5553C116 27.2382 117.332 29.3759 119.024 31.0386C120.709 32.6939 122.828 33.9529 124.582 34.8944C124.711 34.9633 124.853 34.9996 124.998 35C125.143 35.0004 125.285 34.965 125.414 34.8968C127.17 33.9652 129.288 32.6963 130.974 31.0324C132.666 29.3649 134 27.2198 134 24.5553C134 23.0047 133.544 21.6103 132.637 20.5913C131.721 19.5637 130.417 19 128.888 19C127.597 19 126.529 19.491 125.716 20.4165C125.439 20.7373 125.198 21.09 125 21.4675C124.802 21.09 124.561 20.7373 124.284 20.4165C123.471 19.491 122.403 19.0012 121.112 19.0012Z" fill="#FDC9CB"/>
<path fill-rule="evenodd" clip-rule="evenodd" d="M103.112 0.00123075C101.578 0.00123075 100.274 0.566117 99.3596 1.5962C98.4536 2.61521 98 4.01082 98 5.55533C98 8.23823 99.332 10.3759 101.024 12.0386C102.709 13.6939 104.828 14.9529 106.582 15.8944C106.711 15.9633 106.853 15.9996 106.998 16C107.143 16.0004 107.285 15.965 107.414 15.8968C109.17 14.9652 111.288 13.6963 112.974 12.0324C114.666 10.3649 116 8.21977 116 5.55533C116 4.00466 115.544 2.61029 114.637 1.59128C113.721 0.563656 112.417 0 110.888 0C109.597 0 108.529 0.491045 107.716 1.41652C107.439 1.73733 107.198 2.09002 107 2.46753C106.802 2.09002 106.561 1.73733 106.284 1.41652C105.471 0.491045 104.403 0.00123075 103.112 0.00123075Z" fill="#FEE3E4"/>
<ellipse cx="53.5" cy="152" rx="43.5" ry="8" fill="#E2F2CD"/>
<ellipse cx="151.5" cy="152" rx="28.5" ry="5" fill="#E2F2CD"/>
<g clip-path="url(#clip0_169_3505)">
<path d="M35.069 44.1956C35.069 44.1956 32.3842 41.0395 31.483 37.1636C30.5817 33.2878 25.0547 26.5422 19.3114 32.1252C14.1278 37.1636 15.9303 43.5229 25.3962 45.6163L34.8622 47.7097" fill="black"/>
<path d="M65.9333 44.1956C65.9333 44.1956 68.6181 41.0395 69.5194 37.1636C70.4206 33.2878 75.9476 26.5422 81.691 32.1252C86.8746 37.1636 85.0721 43.5229 75.6061 45.6163L66.1402 47.7097" fill="black"/>
<path d="M50.3922 35.3007C50.3922 35.3007 28.8818 34.7184 19.1559 58.2619C10.0353 80.3394 10.4584 75.1144 6.42838 91.3338C2.39838 107.553 -3.11726 133.463 2.18588 140.836C7.48901 148.209 9.82277 152 51.6103 152C87.4819 152 97.3055 148.076 97.3055 148.076C97.3055 148.076 110.543 144.152 106.338 123.351C103.35 108.569 99.3803 90.2805 95.688 82.0634C90.3849 70.2663 83.5487 58.1526 81.2643 54.6781C78.6838 50.7551 67.3642 34.4471 50.3941 35.2988L50.3922 35.3007Z" fill="white"/>
<path d="M95.6841 82.0649C92.4548 74.8784 88.6544 67.5751 85.6623 62.1787C80.1258 64.8788 69.5404 69.4914 57.8791 71.7035C43.1803 74.4921 22.2239 66.4031 16.693 64.1063C10.075 79.5061 10.0542 76.7344 6.4264 91.3353C4.72826 98.1675 2.76828 106.716 1.46289 114.877C15.9379 104.289 30.088 100.639 41.2919 97.4206C55.2148 93.4223 71.094 95.6237 85.4896 101.03C94.1701 104.289 100.219 108.533 103.898 111.683C101.355 99.965 98.4429 88.2056 95.6822 82.0667L95.6841 82.0649Z" fill="black"/>
</g>
<g clip-path="url(#clip1_169_3505)">
<path d="M139.615 82.1922C139.615 82.1922 137.883 80.1485 137.302 77.6387C136.721 75.129 133.157 70.761 129.453 74.3762C126.111 77.6387 127.273 81.7566 133.377 83.1122L139.481 84.4677" fill="black"/>
<path d="M159.518 82.1922C159.518 82.1922 161.249 80.1485 161.83 77.6387C162.411 75.129 165.976 70.761 169.679 74.3762C173.022 77.6387 171.86 81.7566 165.755 83.1122L159.651 84.4677" fill="black"/>
<path d="M149.496 76.4322C149.496 76.4322 135.625 76.0552 129.353 91.3005C123.471 105.597 123.744 102.213 121.145 112.716C118.547 123.219 114.99 139.997 118.41 144.771C121.829 149.545 123.334 152 150.281 152C173.414 152 179.748 149.459 179.748 149.459C179.748 149.459 188.285 146.918 185.573 133.448C183.646 123.876 181.086 112.034 178.705 106.713C175.286 99.0739 170.877 91.2298 169.404 88.9799C167.74 86.4396 160.44 75.8795 149.497 76.431L149.496 76.4322Z" fill="white"/>
<path d="M178.703 106.714C176.62 102.06 174.17 97.3313 172.24 93.8369C168.67 95.5853 161.844 98.5722 154.324 100.005C144.845 101.81 131.331 96.5724 127.765 95.0851C123.497 105.057 123.484 103.262 121.144 112.717C120.049 117.141 118.785 122.677 117.943 127.961C127.278 121.105 136.403 118.741 143.628 116.658C152.606 114.068 162.846 115.494 172.129 118.994C177.726 121.105 181.627 123.853 184 125.893C182.36 118.305 180.482 110.69 178.702 106.715L178.703 106.714Z" fill="black"/>
</g>
<defs>
<clipPath id="clip0_169_3505">
<rect width="107" height="122" fill="white" transform="translate(0 30)"/>
</clipPath>
<clipPath id="clip1_169_3505">
<rect width="69" height="79" fill="white" transform="translate(117 73)"/>
</clipPath>
</defs>
</svg>
