<svg width="149" height="232" viewBox="0 0 149 232" fill="none" xmlns="http://www.w3.org/2000/svg">
<path d="M22.4804 201.801C22.456 201.313 22.7124 200.934 23.2497 200.666C23.8114 200.373 24.4097 200.226 25.0446 200.226C25.6063 200.226 26.1069 200.336 26.5465 200.556C26.9861 200.776 27.2425 201.13 27.3158 201.618C27.6577 204.182 27.8775 206.71 27.9752 209.201C28.0973 211.692 28.1583 214.232 28.1583 216.82C28.1583 217.431 27.9019 217.968 27.3891 218.432C26.8762 218.872 26.2046 219.25 25.3743 219.568C24.5684 219.861 23.6404 220.08 22.5903 220.227C21.5646 220.373 20.5389 220.447 19.5133 220.447C18.4876 220.447 17.4863 220.386 16.5095 220.264C15.5571 220.117 14.7023 219.897 13.9453 219.604C13.1882 219.311 12.5777 218.945 12.1137 218.505C11.6497 218.041 11.4177 217.492 11.4177 216.857V215.172C11.4177 212.876 11.4665 210.617 11.5642 208.395C11.6619 206.148 11.8451 203.877 12.1137 201.581C12.1625 201.093 12.3945 200.751 12.8097 200.556C13.2493 200.336 13.7377 200.226 14.2749 200.226C14.6168 200.226 14.9587 200.263 15.3006 200.336C15.6669 200.409 15.9844 200.519 16.2531 200.666C16.5217 200.788 16.7415 200.947 16.9124 201.142C17.0834 201.313 17.1688 201.508 17.1688 201.728L17.0223 206.747H18.6341C19.2935 206.747 19.9528 206.747 20.6122 206.747C21.296 206.747 21.992 206.759 22.7002 206.783C22.6514 205.953 22.6025 205.135 22.5537 204.329C22.5293 203.499 22.5048 202.656 22.4804 201.801ZM30.3196 223.194C30.5149 221.533 30.6493 219.641 30.7225 217.516C30.7958 215.392 30.8324 213.194 30.8324 210.923C30.8324 209.14 30.808 207.381 30.7592 205.648C30.7347 203.889 30.6981 202.229 30.6493 200.666C30.6248 200.177 30.8813 199.799 31.4185 199.53C31.9802 199.237 32.5785 199.091 33.2135 199.091C33.7507 199.091 34.2392 199.2 34.6787 199.42C35.1183 199.64 35.3869 199.994 35.4846 200.483C35.68 201.63 35.8387 202.839 35.9608 204.109C36.0829 205.355 36.1928 206.661 36.2905 208.029C36.7789 208.029 37.2674 208.029 37.7558 208.029C38.2442 208.029 38.7326 208.041 39.2211 208.065C39.6606 208.09 39.9903 208.334 40.2101 208.798C40.4299 209.237 40.5398 209.738 40.5398 210.3C40.5398 210.617 40.5032 210.935 40.4299 211.252C40.3566 211.57 40.2467 211.863 40.1002 212.131C39.9537 212.376 39.7705 212.583 39.5507 212.754C39.3309 212.901 39.0745 212.974 38.7815 212.974C38.3663 212.974 37.9756 212.974 37.6093 212.974C37.2429 212.974 36.8766 212.986 36.5103 213.011C36.5103 213.499 36.5103 213.975 36.5103 214.439C36.5347 214.903 36.5469 215.367 36.5469 215.831C36.5469 217.223 36.5225 218.566 36.4737 219.861C36.4248 221.155 36.3638 222.352 36.2905 223.451C36.2417 223.89 35.9486 224.208 35.4114 224.403C34.8741 224.598 34.2636 224.696 33.5798 224.696C33.1646 224.696 32.7495 224.659 32.3343 224.586C31.9436 224.537 31.5895 224.44 31.272 224.293C30.9789 224.171 30.7347 224.024 30.5394 223.853C30.3684 223.658 30.2952 223.438 30.3196 223.194ZM16.9124 214.439C16.9124 214.928 17.2299 215.282 17.8648 215.501C18.4998 215.721 19.1836 215.831 19.9162 215.831C20.2825 215.831 20.6488 215.807 21.0152 215.758C21.3815 215.709 21.6989 215.624 21.9676 215.501C22.2606 215.379 22.4926 215.233 22.6636 215.062C22.8589 214.867 22.9566 214.635 22.9566 214.366C22.9566 213.829 22.9444 213.304 22.92 212.791C22.92 212.253 22.9078 211.716 22.8834 211.179C21.8821 211.179 20.8931 211.179 19.9162 211.179C18.9394 211.179 17.9381 211.191 16.9124 211.216V214.439ZM53.8594 196.233C55.5444 196.233 57.0707 196.526 58.4383 197.112C59.8059 197.699 60.9781 198.48 61.955 199.457C62.9562 200.434 63.7255 201.581 64.2627 202.9C64.8 204.195 65.0686 205.55 65.0686 206.966C65.0686 209.335 64.4093 211.289 63.0905 212.827C61.7962 214.366 59.7448 215.343 56.9364 215.758L57.0097 219.787C59.9158 219.787 62.712 219.714 65.3983 219.568C65.8379 219.543 66.1676 219.739 66.3874 220.154C66.6072 220.544 66.7171 220.984 66.7171 221.472C66.7171 221.961 66.5949 222.437 66.3507 222.901C66.1309 223.341 65.7768 223.609 65.2884 223.707C64.2139 223.902 63.0417 224.073 61.7718 224.22C60.5019 224.366 59.1832 224.488 57.8156 224.586C56.4724 224.684 55.0926 224.757 53.6762 224.806C52.2842 224.855 50.9288 224.879 49.6101 224.879C48.267 224.879 46.9971 224.855 45.8004 224.806C44.6038 224.757 43.5171 224.684 42.5402 224.586C42.0762 224.537 41.7343 224.22 41.5145 223.634C41.3192 223.048 41.2215 222.413 41.2215 221.729C41.2215 221.045 41.3192 220.447 41.5145 219.934C41.7343 219.397 42.0518 219.152 42.467 219.201C43.859 219.323 45.2632 219.433 46.6796 219.531C48.1204 219.604 49.5857 219.665 51.0754 219.714C51.0754 219.079 51.0632 218.432 51.0387 217.773C51.0387 217.089 51.0387 216.429 51.0387 215.795C48.2059 215.428 46.1179 214.512 44.7747 213.047C43.456 211.582 42.7966 209.665 42.7966 207.296C42.7966 205.782 43.0531 204.353 43.5659 203.01C44.1032 201.667 44.848 200.495 45.8004 199.493C46.7773 198.492 47.9373 197.699 49.2804 197.112C50.648 196.526 52.1743 196.233 53.8594 196.233ZM53.9693 200.776C52.968 200.776 52.1255 200.971 51.4417 201.362C50.7823 201.752 50.2451 202.253 49.8299 202.864C49.4147 203.474 49.1095 204.17 48.9141 204.952C48.7432 205.733 48.6577 206.502 48.6577 207.259C48.6577 207.943 48.792 208.554 49.0606 209.091C49.3293 209.604 49.6956 210.043 50.1596 210.41C50.648 210.752 51.2097 211.02 51.8446 211.216C52.4796 211.387 53.1512 211.472 53.8594 211.472C54.5432 211.472 55.2147 211.374 55.8741 211.179C56.5579 210.984 57.1562 210.703 57.6691 210.336C58.1819 209.946 58.5971 209.469 58.9145 208.908C59.232 208.346 59.3907 207.711 59.3907 207.003C59.3907 206.148 59.2686 205.342 59.0244 204.585C58.8046 203.828 58.4627 203.169 57.9987 202.607C57.5592 202.045 56.9975 201.606 56.3137 201.288C55.6543 200.947 54.8728 200.776 53.9693 200.776ZM77.7432 230.374C77.6699 230.618 77.499 230.789 77.2303 230.887C76.9617 231.009 76.6564 231.07 76.3145 231.07C75.9971 231.07 75.6674 231.021 75.3255 230.923C74.9836 230.85 74.6783 230.752 74.4097 230.63C74.1411 230.508 73.9335 230.362 73.787 230.191C73.6404 230.02 73.6038 229.849 73.6771 229.678C73.8724 229.189 74.0434 228.689 74.1899 228.176C74.3608 227.688 74.4952 227.199 74.5928 226.711C74.2021 226.686 73.8236 226.637 73.4573 226.564C73.091 226.515 72.7613 226.43 72.4682 226.308C72.1996 226.21 71.9798 226.088 71.8088 225.941C71.6623 225.795 71.6013 225.624 71.6257 225.429C71.6745 224.574 71.7112 223.707 71.7356 222.828C71.7844 221.949 71.8088 221.082 71.8088 220.227C71.8088 219.885 72.1019 219.629 72.688 219.458C73.2985 219.262 73.9701 219.165 74.7027 219.165C75.4842 219.165 76.2046 219.275 76.864 219.494C77.5234 219.69 77.8897 219.995 77.963 220.41C78.256 222.022 78.4025 223.585 78.4025 225.099C78.4025 226.931 78.1827 228.689 77.7432 230.374ZM84.3512 218.469C85.3036 218.566 86.2804 218.652 87.2817 218.725C88.3074 218.798 89.333 218.859 90.3587 218.908V215.758C89.5773 215.685 88.8446 215.563 88.1608 215.392C87.477 215.221 86.8787 215.013 86.3659 214.769C85.853 214.525 85.4379 214.244 85.1204 213.926C84.8274 213.584 84.6808 213.206 84.6808 212.791V211.069C84.6808 209.237 84.7297 207.418 84.8274 205.611C84.925 203.779 85.1082 201.936 85.3768 200.08C85.4257 199.664 85.6577 199.371 86.0728 199.2C86.488 199.029 86.9642 198.944 87.5015 198.944C87.8434 198.944 88.1853 198.981 88.5272 199.054C88.8935 199.103 89.2109 199.188 89.4796 199.31C89.7726 199.408 90.0046 199.542 90.1756 199.713C90.3465 199.86 90.432 200.019 90.432 200.189C90.3832 200.8 90.3465 201.411 90.3221 202.021C90.3221 202.607 90.3099 203.193 90.2855 203.779H91.9705C92.6787 203.779 93.3992 203.779 94.1318 203.779C94.8644 203.779 95.597 203.792 96.3297 203.816L96.1099 200.263C96.0855 200.043 96.1465 199.848 96.293 199.677C96.4396 199.506 96.6349 199.359 96.8792 199.237C97.1234 199.115 97.4042 199.029 97.7217 198.981C98.0392 198.907 98.3566 198.871 98.6741 198.871C99.2358 198.871 99.7364 198.981 100.176 199.2C100.616 199.396 100.872 199.701 100.945 200.116C101.287 202.241 101.507 204.353 101.605 206.453C101.727 208.529 101.788 210.629 101.788 212.754C101.788 213.145 101.641 213.499 101.348 213.816C101.055 214.134 100.652 214.415 100.139 214.659C99.6509 214.903 99.0648 215.123 98.381 215.318C97.6973 215.489 96.9646 215.624 96.1832 215.721L96.293 219.018C97.3432 219.018 98.3688 219.006 99.3701 218.981C100.371 218.957 101.36 218.908 102.337 218.835C102.679 218.811 102.936 219.006 103.107 219.421C103.277 219.836 103.363 220.288 103.363 220.776C103.363 221.265 103.265 221.729 103.07 222.168C102.899 222.608 102.618 222.877 102.227 222.974C101.397 223.17 100.481 223.341 99.48 223.487C98.5032 223.634 97.4775 223.756 96.4029 223.853C95.3528 223.927 94.2783 223.988 93.1794 224.037C92.0804 224.085 91.0059 224.11 89.9558 224.11C88.9057 224.11 87.9166 224.085 86.9886 224.037C86.0606 224.012 85.2059 223.951 84.4244 223.853C84.0093 223.805 83.704 223.499 83.5086 222.938C83.3133 222.352 83.2156 221.717 83.2156 221.033C83.2156 220.349 83.3133 219.751 83.5086 219.238C83.704 218.701 83.9848 218.444 84.3512 218.469ZM103.839 223.194C104.035 221.533 104.169 219.641 104.242 217.516C104.315 215.392 104.352 213.194 104.352 210.923C104.352 209.14 104.328 207.381 104.279 205.648C104.254 203.889 104.218 202.229 104.169 200.666C104.169 200.421 104.242 200.202 104.389 200.006C104.535 199.811 104.718 199.652 104.938 199.53C105.182 199.384 105.451 199.274 105.744 199.2C106.061 199.127 106.379 199.091 106.696 199.091C107.234 199.091 107.71 199.2 108.125 199.42C108.565 199.64 108.833 199.994 108.931 200.483C109.126 201.679 109.285 202.949 109.407 204.292C109.554 205.611 109.676 206.979 109.773 208.395C110.237 208.395 110.689 208.395 111.129 208.395C111.593 208.395 112.045 208.407 112.484 208.432C112.924 208.456 113.253 208.7 113.473 209.164C113.693 209.604 113.803 210.104 113.803 210.666C113.803 210.984 113.766 211.301 113.693 211.619C113.62 211.936 113.51 212.229 113.363 212.498C113.217 212.742 113.034 212.949 112.814 213.12C112.594 213.267 112.338 213.34 112.045 213.34H109.957C109.957 213.804 109.957 214.268 109.957 214.732C109.981 215.172 109.993 215.624 109.993 216.088C109.993 217.455 109.969 218.762 109.92 220.007C109.871 221.228 109.81 222.376 109.737 223.451C109.688 223.89 109.395 224.208 108.858 224.403C108.345 224.598 107.747 224.696 107.063 224.696C106.648 224.696 106.245 224.659 105.854 224.586C105.463 224.537 105.109 224.44 104.792 224.293C104.499 224.171 104.254 224.024 104.059 223.853C103.888 223.658 103.815 223.438 103.839 223.194ZM90.1756 210.336C90.1756 210.532 90.261 210.715 90.432 210.886C90.6274 211.032 90.8716 211.155 91.1646 211.252C91.4577 211.35 91.7874 211.423 92.1537 211.472C92.5444 211.521 92.9352 211.545 93.3259 211.545C93.7166 211.545 94.1074 211.521 94.4981 211.472C94.8888 211.423 95.2429 211.35 95.5604 211.252C95.8779 211.13 96.1221 210.996 96.293 210.849C96.4884 210.678 96.5861 210.483 96.5861 210.263C96.5861 209.872 96.5739 209.494 96.5495 209.128C96.5495 208.737 96.5495 208.334 96.5495 207.919C95.4994 207.919 94.437 207.919 93.3625 207.919C92.288 207.919 91.2135 207.931 90.1389 207.955C90.1389 208.371 90.1389 208.773 90.1389 209.164C90.1389 209.555 90.1512 209.946 90.1756 210.336ZM127.123 196.233C128.808 196.233 130.334 196.526 131.701 197.112C133.069 197.699 134.241 198.48 135.218 199.457C136.219 200.434 136.989 201.581 137.526 202.9C138.063 204.195 138.332 205.55 138.332 206.966C138.332 208.505 138.051 209.872 137.489 211.069C136.952 212.266 136.109 213.255 134.962 214.036C135.011 214.964 135.059 215.917 135.108 216.893C135.157 217.846 135.218 218.786 135.291 219.714C135.853 219.69 136.415 219.677 136.976 219.677C137.538 219.653 138.1 219.616 138.661 219.568C139.101 219.543 139.431 219.739 139.651 220.154C139.87 220.544 139.98 220.984 139.98 221.472C139.98 221.961 139.858 222.437 139.614 222.901C139.394 223.341 139.04 223.609 138.552 223.707C137.477 223.902 136.305 224.073 135.035 224.22C133.765 224.366 132.446 224.488 131.079 224.586C129.736 224.684 128.356 224.757 126.939 224.806C125.547 224.855 124.192 224.879 122.873 224.879C121.53 224.879 120.26 224.855 119.064 224.806C117.867 224.757 116.78 224.684 115.803 224.586C115.339 224.537 114.997 224.22 114.778 223.634C114.582 223.048 114.485 222.413 114.485 221.729C114.485 221.045 114.582 220.447 114.778 219.934C114.997 219.397 115.315 219.152 115.73 219.201C116.316 219.25 116.902 219.299 117.488 219.348C118.099 219.397 118.722 219.445 119.357 219.494C119.381 218.615 119.405 217.748 119.43 216.893C119.454 216.039 119.491 215.147 119.54 214.219C118.343 213.487 117.464 212.534 116.902 211.362C116.341 210.19 116.06 208.835 116.06 207.296C116.06 205.782 116.316 204.353 116.829 203.01C117.366 201.667 118.111 200.495 119.064 199.493C120.04 198.492 121.2 197.699 122.544 197.112C123.911 196.526 125.437 196.233 127.123 196.233ZM127.232 200.776C126.231 200.776 125.389 200.971 124.705 201.362C124.045 201.752 123.508 202.253 123.093 202.864C122.678 203.474 122.373 204.17 122.177 204.952C122.006 205.733 121.921 206.502 121.921 207.259C121.921 207.943 122.055 208.554 122.324 209.091C122.592 209.604 122.959 210.043 123.423 210.41C123.911 210.752 124.473 211.02 125.108 211.216C125.743 211.387 126.414 211.472 127.123 211.472C127.806 211.472 128.478 211.374 129.137 211.179C129.821 210.984 130.419 210.703 130.932 210.336C131.445 209.946 131.86 209.469 132.178 208.908C132.495 208.346 132.654 207.711 132.654 207.003C132.654 206.148 132.532 205.342 132.288 204.585C132.068 203.828 131.726 203.169 131.262 202.607C130.822 202.045 130.261 201.606 129.577 201.288C128.917 200.947 128.136 200.776 127.232 200.776ZM129.504 219.787C129.504 218.493 129.54 217.162 129.613 215.795C129.223 215.843 128.82 215.88 128.405 215.904C127.989 215.929 127.562 215.941 127.123 215.941C126.707 215.941 126.317 215.941 125.95 215.941C125.584 215.941 125.23 215.917 124.888 215.868C124.937 216.503 124.973 217.15 124.998 217.809C125.047 218.469 125.096 219.116 125.144 219.751C125.853 219.775 126.573 219.787 127.306 219.787C128.038 219.787 128.771 219.787 129.504 219.787Z" fill="#6CBD04"/>
<ellipse cx="75" cy="171" rx="61" ry="11" fill="#C4E59B"/>
<g clip-path="url(#clip0_169_3490)">
<path d="M48.8345 19.8971C48.8345 19.8971 45.0959 15.4734 43.8409 10.0408C42.5859 4.60828 34.8893 -4.84653 26.8916 2.97878C19.6733 10.0408 22.1834 18.9542 35.3649 21.8884L48.5465 24.8226" fill="black"/>
<path d="M91.814 19.8971C91.814 19.8971 95.5526 15.4734 96.8076 10.0408C98.0626 4.60828 105.759 -4.84653 113.757 2.97878C120.975 10.0408 118.465 18.9542 105.284 21.8884L92.102 24.8226" fill="black"/>
<path d="M70.1721 7.42957C70.1721 7.42957 40.2183 6.61349 26.6748 39.6129C13.9741 70.5576 14.5633 63.2341 8.95144 85.9679C3.33957 108.702 -4.34109 145.018 3.04365 155.352C10.4284 165.687 13.6782 171 71.8684 171C121.82 171 135.5 165.5 135.5 165.5C135.5 165.5 153.934 160 148.078 130.844C143.916 110.125 138.389 84.4915 133.248 72.9741C125.863 56.4388 116.343 39.4597 113.162 34.5897C109.569 29.0911 93.8059 6.23319 70.1748 7.42693L70.1721 7.42957Z" fill="white"/>
<path d="M133.242 72.9767C128.746 62.9039 123.453 52.6674 119.287 45.1035C111.577 48.8881 96.8366 55.3533 80.5981 58.4538C60.1295 62.3625 30.9472 51.0247 23.2454 47.8053C14.0297 69.3902 14.0007 65.5053 8.94891 85.9705C6.58421 95.5468 3.85489 107.529 2.03711 118.967C22.1939 104.127 41.8983 99.0108 57.5 94.5C76.8879 88.8958 99 91.9813 119.046 99.5585C131.134 104.127 139.557 110.075 144.68 114.491C141.14 98.0663 137.084 81.5838 133.24 72.9794L133.242 72.9767Z" fill="black"/>
</g>
<defs>
<clipPath id="clip0_169_3490">
<rect width="149" height="171" fill="white"/>
</clipPath>
</defs>
</svg>
