<svg width="68" height="83" viewBox="0 0 68 83" fill="none" xmlns="http://www.w3.org/2000/svg">
<g clip-path="url(#clip0_137_5057)">
<path d="M25.3071 18.519L0.338715 77.016C-0.876405 79.8668 1.28511 83.0003 4.4748 83.0003H54.3999C57.5896 83.0003 59.7511 79.8668 58.536 77.016L33.5676 18.519C32.0487 14.9442 26.826 14.9442 25.2954 18.519H25.3071Z" fill="#F7F4DA"/>
<path d="M29.4432 19.8871C33.5279 19.8871 36.8391 16.6811 36.8391 12.7263C36.8391 8.77144 33.5279 5.56543 29.4432 5.56543C25.3586 5.56543 22.0474 8.77144 22.0474 12.7263C22.0474 16.6811 25.3586 19.8871 29.4432 19.8871Z" fill="#231F20"/>
<path d="M46.4903 60.2507C46.4903 60.2507 43.9665 46.0195 58.3143 42.0488C58.3143 42.0488 55.2064 53.2935 46.4903 60.2507Z" fill="#8DC63F"/>
<path d="M46.5601 60.2056C46.5601 60.2056 54.657 48.0786 67.9999 54.5607C67.9999 54.5607 57.8467 60.7939 46.5601 60.2056Z" fill="#8DC63F"/>
<path d="M18.636 34.1526L15.1191 42.3994C16.8717 42.9424 21.6855 44.2207 28.7191 44.2207C32.9837 44.2207 38.0662 43.7456 43.7563 42.3655L40.2044 34.0508C29.1865 36.449 21.2648 34.8427 18.636 34.1413V34.1526Z" fill="#8DC63F"/>
<path d="M27.9477 70.488C35.4604 70.488 44.3986 69.6961 54.435 67.411L50.8831 59.085C37.0728 62.0488 25.8096 61.8678 18.5889 61.1325C13.8219 60.6461 10.1999 59.8768 7.92159 59.2886L4.39307 67.5694C8.2721 68.6667 16.4742 70.4993 27.9594 70.4993L27.9477 70.488Z" fill="#8DC63F"/>
<path d="M23.9401 3.66526C24.9855 3.66526 25.8329 2.84476 25.8329 1.83263C25.8329 0.820496 24.9855 0 23.9401 0C22.8948 0 22.0474 0.820496 22.0474 1.83263C22.0474 2.84476 22.8948 3.66526 23.9401 3.66526Z" fill="#8DC63F"/>
<path d="M46.3147 31.1545C47.36 31.1545 48.2074 30.334 48.2074 29.3219C48.2074 28.3098 47.36 27.4893 46.3147 27.4893C45.2693 27.4893 44.4219 28.3098 44.4219 29.3219C44.4219 30.334 45.2693 31.1545 46.3147 31.1545Z" fill="#231F20"/>
<path d="M49.3874 24.5256C50.4328 24.5256 51.2802 23.7051 51.2802 22.693C51.2802 21.6808 50.4328 20.8604 49.3874 20.8604C48.3421 20.8604 47.4946 21.6808 47.4946 22.693C47.4946 23.7051 48.3421 24.5256 49.3874 24.5256Z" fill="#8DC63F"/>
<path d="M9.33517 31.1545C10.3805 31.1545 11.2279 30.334 11.2279 29.3219C11.2279 28.3098 10.3805 27.4893 9.33517 27.4893C8.28981 27.4893 7.44238 28.3098 7.44238 29.3219C7.44238 30.334 8.28981 31.1545 9.33517 31.1545Z" fill="#8DC63F"/>
<path d="M13.4245 8.94846C14.4699 8.94846 15.3173 8.12797 15.3173 7.11583C15.3173 6.1037 14.4699 5.2832 13.4245 5.2832C12.3792 5.2832 11.5317 6.1037 11.5317 7.11583C11.5317 8.12797 12.3792 8.94846 13.4245 8.94846Z" fill="#231F20"/>
<path d="M46.4434 12.8167C48.0695 12.8167 49.3877 11.5404 49.3877 9.96599C49.3877 8.39156 48.0695 7.11523 46.4434 7.11523C44.8172 7.11523 43.499 8.39156 43.499 9.96599C43.499 11.5404 44.8172 12.8167 46.4434 12.8167Z" stroke="#B4D33C" stroke-width="2" stroke-miterlimit="10" stroke-linecap="round"/>
<path d="M40.1338 12.353C40.309 11.0521 40.8231 9.78509 41.6877 8.66515C44.375 5.21483 49.4224 4.52477 52.986 7.12665" stroke="#B4D33C" stroke-width="2" stroke-miterlimit="10" stroke-linecap="round"/>
<path d="M9.73242 22.6927C11.3585 22.6927 12.6767 21.4164 12.6767 19.842C12.6767 18.2675 11.3585 16.9912 9.73242 16.9912C8.10631 16.9912 6.78809 18.2675 6.78809 19.842C6.78809 21.4164 8.10631 22.6927 9.73242 22.6927Z" stroke="#77CFE2" stroke-width="2" stroke-miterlimit="10" stroke-linecap="round"/>
<path d="M15.6798 22.1385C14.6282 22.9644 13.3547 23.5526 11.9293 23.7789C7.53612 24.5029 3.36499 21.6408 2.62891 17.376" stroke="#77CFE2" stroke-width="2" stroke-miterlimit="10" stroke-linecap="round"/>
</g>
<defs>
<clipPath id="clip0_137_5057">
<rect width="68" height="83" fill="white"/>
</clipPath>
</defs>
</svg>
