<svg width="375" height="204" viewBox="0 0 375 204" fill="none" xmlns="http://www.w3.org/2000/svg">
<rect width="375" height="204" fill="#FFBE41"/>
<path d="M139.138 104.709C138.569 104.709 138.018 104.777 137.489 104.903C137.61 104.396 137.671 103.876 137.672 103.356C137.672 99.5469 134.484 96.4593 130.551 96.4593C129.115 96.4574 127.713 96.8777 126.529 97.6647C125.194 92.6803 120.517 89 114.952 89C108.347 89 102.992 94.1859 102.992 100.583C98.026 100.583 94 104.482 94 109.291C94 114.101 98.0259 118 102.992 118H139.138C142.928 118 146 115.025 146 111.354C146 107.684 142.928 104.709 139.138 104.709Z" fill="#CDEDFF"/>
<path d="M49.9589 115.75C50.2869 115.75 50.6052 115.793 50.91 115.871C50.8403 115.556 50.805 115.234 50.8048 114.91C50.8048 112.546 52.6441 110.63 54.913 110.63C55.7412 110.629 56.5503 110.89 57.2331 111.378C58.0037 108.284 60.7018 106 63.9121 106C67.7229 106 70.8122 109.219 70.8122 113.189C73.6773 113.189 76 115.609 76 118.595C76 121.58 73.6774 124 70.8122 124H49.9589C47.7725 124 46 122.153 46 119.875C46 117.597 47.7725 115.75 49.9589 115.75Z" fill="#CDEDFF"/>
<path d="M332.305 114.667C331.999 114.667 331.702 114.704 331.417 114.774C331.482 114.494 331.515 114.208 331.516 113.92C331.516 111.819 329.799 110.115 327.681 110.115C326.908 110.114 326.153 110.346 325.516 110.781C324.797 108.031 322.278 106 319.282 106C315.725 106 312.842 108.861 312.842 112.391C310.168 112.391 308 114.542 308 117.195C308 119.849 310.168 122 312.842 122H332.305C334.346 122 336 120.358 336 118.333C336 116.308 334.346 114.667 332.305 114.667Z" fill="#CDEDFF"/>
<g clip-path="url(#clip0_189_3848)">
<path d="M242.237 114.239C242.237 114.239 240.305 111.963 239.656 109.167C239.008 106.372 235.03 101.506 230.897 105.533C227.167 109.167 228.464 113.754 235.276 115.264L242.088 116.774" fill="black"/>
<path d="M264.447 114.239C264.447 114.239 266.379 111.963 267.028 109.167C267.676 106.372 271.654 101.506 275.787 105.533C279.517 109.167 278.22 113.754 271.408 115.264L264.596 116.774" fill="black"/>
<path d="M253.263 107.823C253.263 107.823 237.784 107.403 230.785 124.386C224.221 140.31 224.526 136.542 221.626 148.241C218.726 159.94 214.757 178.629 218.573 183.947C222.389 189.266 224.069 192 254.14 192C279.954 192 287.023 189.17 287.023 189.17C287.023 189.17 296.55 186.339 293.523 171.335C291.373 160.673 288.517 147.481 285.859 141.554C282.043 133.044 277.124 124.307 275.48 121.801C273.623 118.971 265.477 107.208 253.265 107.822L253.263 107.823Z" fill="white"/>
<path d="M285.857 141.555C283.533 136.371 280.798 131.103 278.645 127.211C274.661 129.159 267.043 132.486 258.651 134.081C248.074 136.093 232.993 130.258 229.013 128.601C224.25 139.709 224.235 137.71 221.625 148.242C220.403 153.17 218.992 159.336 218.053 165.223C228.469 157.586 238.652 154.953 246.715 152.631C256.734 149.747 268.161 151.335 278.521 155.235C284.767 157.586 289.12 160.647 291.768 162.919C289.938 154.467 287.842 145.984 285.855 141.556L285.857 141.555Z" fill="black"/>
</g>
<path fill-rule="evenodd" clip-rule="evenodd" d="M25 192.5C25 192.7 24.9953 192.898 24.9861 193.095H25.0139C25.0047 192.898 25 192.7 25 192.5ZM50 192.5C50 185.596 44.4036 180 37.5 180C30.5964 180 25 185.596 25 192.5C25 185.596 19.4036 180 12.5 180C5.59644 180 0 185.596 0 192.5C0 192.7 0.00467545 192.898 0.0139228 193.095H0V204H375V193.095H374.986C374.995 192.898 375 192.7 375 192.5C375 185.596 369.404 180 362.5 180C355.596 180 350 185.596 350 192.5C350 185.596 344.404 180 337.5 180C330.596 180 325 185.596 325 192.5C325 185.596 319.404 180 312.5 180C305.596 180 300 185.596 300 192.5C300 185.596 294.404 180 287.5 180C280.596 180 275 185.596 275 192.5C275 185.596 269.404 180 262.5 180C255.596 180 250 185.596 250 192.5C250 185.596 244.404 180 237.5 180C230.596 180 225 185.596 225 192.5C225 185.596 219.404 180 212.5 180C205.596 180 200 185.596 200 192.5C200 185.596 194.404 180 187.5 180C180.596 180 175 185.596 175 192.5C175 185.596 169.404 180 162.5 180C155.596 180 150 185.596 150 192.5C150 185.596 144.404 180 137.5 180C130.596 180 125 185.596 125 192.5C125 185.596 119.404 180 112.5 180C105.596 180 100 185.596 100 192.5C100 185.596 94.4036 180 87.5 180C80.5964 180 75 185.596 75 192.5C75 185.596 69.4036 180 62.5 180C55.5964 180 50 185.596 50 192.5ZM50 192.5C50 192.7 50.0047 192.898 50.0139 193.095H49.9861C49.9953 192.898 50 192.7 50 192.5ZM75 192.5C75 192.7 75.0047 192.898 75.0139 193.095H74.9861C74.9953 192.898 75 192.7 75 192.5ZM100 192.5C100 192.7 100.005 192.898 100.014 193.095H99.9861C99.9953 192.898 100 192.7 100 192.5ZM125 192.5C125 192.7 125.005 192.898 125.014 193.095H124.986C124.995 192.898 125 192.7 125 192.5ZM150 192.5C150 192.7 150.005 192.898 150.014 193.095H149.986C149.995 192.898 150 192.7 150 192.5ZM175 192.5C175 192.7 175.005 192.898 175.014 193.095H174.986C174.995 192.898 175 192.7 175 192.5ZM200 192.5C200 192.7 200.005 192.898 200.014 193.095H199.986C199.995 192.898 200 192.7 200 192.5ZM225 192.5C225 192.7 225.005 192.898 225.014 193.095H224.986C224.995 192.898 225 192.7 225 192.5ZM250 192.5C250 192.7 250.005 192.898 250.014 193.095H249.986C249.995 192.898 250 192.7 250 192.5ZM275 192.5C275 192.7 275.005 192.898 275.014 193.095H274.986C274.995 192.898 275 192.7 275 192.5ZM300 192.5C300 192.7 300.005 192.898 300.014 193.095H299.986C299.995 192.898 300 192.7 300 192.5ZM325 192.5C325 192.7 325.005 192.898 325.014 193.095H324.986C324.995 192.898 325 192.7 325 192.5ZM350 192.5C350 192.7 350.005 192.898 350.014 193.095H349.986C349.995 192.898 350 192.7 350 192.5Z" fill="#6CBD04"/>
<defs>
<clipPath id="clip0_189_3848">
<rect width="77" height="88" fill="white" transform="translate(217 104)"/>
</clipPath>
</defs>
</svg>
