<svg width="24" height="24" viewBox="0 0 24 24" fill="none" xmlns="http://www.w3.org/2000/svg">
<path fill-rule="evenodd" clip-rule="evenodd" d="M7.14 2.25004C5.223 2.25004 3.5925 2.93854 2.4495 4.19404C1.317 5.43604 0.75 7.13704 0.75 9.01954C0.75 12.2895 2.415 14.895 4.53 16.9215C6.636 18.939 9.285 20.4735 11.478 21.621C11.6383 21.7051 11.8164 21.7493 11.9974 21.7498C12.1783 21.7503 12.3568 21.7072 12.5175 21.624C14.712 20.4885 17.3595 18.942 19.467 16.914C21.582 14.8815 23.25 12.267 23.25 9.01954C23.25 7.12954 22.68 5.43004 21.546 4.18804C20.4015 2.93554 18.771 2.24854 16.86 2.24854C15.246 2.24854 13.911 2.84704 12.8955 3.97504C12.5486 4.36604 12.2481 4.79591 12 5.25604C11.7519 4.79591 11.4514 4.36604 11.1045 3.97504C10.089 2.84704 8.754 2.25004 7.14 2.25004Z" fill="#FF6D6D"/>
</svg>
