<svg width="70" height="86" viewBox="0 0 70 86" fill="none" xmlns="http://www.w3.org/2000/svg">
<path fill-rule="evenodd" clip-rule="evenodd" d="M27.9586 0.498047C25.1901 0.498047 22.9458 2.74235 22.9458 5.51085V11.7688C22.9458 14.5373 25.1901 16.7816 27.9586 16.7816H31.9755C32.01 16.8591 32.0555 16.9344 32.1129 17.0059L34.268 19.6958C34.6693 20.1967 35.4315 20.1967 35.8328 19.6958L37.9879 17.0059C38.0453 16.9344 38.0908 16.8591 38.1253 16.7816H42.1422C44.9107 16.7816 47.155 14.5373 47.155 11.7688V5.51085C47.155 2.74235 44.9107 0.498047 42.1422 0.498047H27.9586Z" fill="#FCBFC2"/>
<path fill-rule="evenodd" clip-rule="evenodd" d="M32.5604 3.81326C31.5782 3.81326 30.7428 4.16431 30.1571 4.80445C29.5769 5.43771 29.2864 6.30499 29.2864 7.26482C29.2864 8.93209 30.1395 10.2605 31.2231 11.2938C32.3022 12.3225 33.6594 13.1048 34.783 13.6899C34.8651 13.7328 34.9564 13.7553 35.0491 13.7556C35.1419 13.7558 35.2333 13.7338 35.3156 13.6915C36.44 13.1125 37.7965 12.324 38.8763 11.29C39.96 10.2537 40.8146 8.92062 40.8146 7.26482C40.8146 6.30117 40.5225 5.43465 39.9415 4.80139C39.3551 4.16278 38.5197 3.8125 37.5406 3.8125C36.7136 3.8125 36.0296 4.11766 35.5093 4.69279C35.3315 4.89215 35.1776 5.11132 35.0505 5.34593C34.9234 5.11132 34.7694 4.89215 34.5917 4.69279C34.0714 4.11766 33.3873 3.81326 32.5604 3.81326Z" fill="white"/>
<path fill-rule="evenodd" clip-rule="evenodd" d="M3.79745 13.4353C2.81525 13.4353 1.97983 13.7864 1.3942 14.4265C0.813948 15.0598 0.523438 15.9271 0.523438 16.8869C0.523438 18.5542 1.37652 19.8826 2.46018 20.9159C3.53922 21.9445 4.89647 22.7269 6.02009 23.312C6.10219 23.3549 6.19348 23.3774 6.2862 23.3776C6.37892 23.3779 6.47034 23.3559 6.55269 23.3135C7.67707 22.7346 9.03356 21.9461 10.1134 20.912C11.197 19.8757 12.0516 18.5427 12.0516 16.8869C12.0516 15.9232 11.7596 15.0567 11.1786 14.4235C10.5922 13.7848 9.75676 13.4346 8.77763 13.4346C7.95068 13.4346 7.26667 13.7397 6.74636 14.3149C6.56861 14.5142 6.41464 14.7334 6.28754 14.968C6.16044 14.7334 6.00648 14.5142 5.82872 14.3149C5.30841 13.7397 4.62441 13.4353 3.79745 13.4353Z" fill="#FCBFC2"/>
<path fill-rule="evenodd" clip-rule="evenodd" d="M61.5785 13.4353C60.5963 13.4353 59.7608 13.7864 59.1752 14.4265C58.595 15.0598 58.3044 15.9271 58.3044 16.8869C58.3044 18.5542 59.1575 19.8826 60.2412 20.9159C61.3202 21.9445 62.6775 22.7269 63.8011 23.312C63.8832 23.3549 63.9745 23.3774 64.0672 23.3776C64.1599 23.3779 64.2513 23.3559 64.3337 23.3135C65.4581 22.7346 66.8146 21.9461 67.8944 20.912C68.978 19.8757 69.8327 18.5427 69.8327 16.8869C69.8327 15.9232 69.5406 15.0567 68.9596 14.4235C68.3732 13.7848 67.5378 13.4346 66.5586 13.4346C65.7317 13.4346 65.0477 13.7397 64.5274 14.3149C64.3496 14.5142 64.1956 14.7334 64.0685 14.968C63.9414 14.7334 63.7875 14.5142 63.6097 14.3149C63.0894 13.7397 62.4054 13.4353 61.5785 13.4353Z" fill="#FCBFC2"/>
<path fill-rule="evenodd" clip-rule="evenodd" d="M17.977 26.3711C11.3326 26.3711 5.94629 31.7574 5.94629 38.4018V53.421C5.94629 60.0654 11.3326 65.4517 17.977 65.4517H27.6172C27.7001 65.6377 27.8095 65.8187 27.9472 65.9906L33.1196 72.4462C34.0828 73.6484 35.9119 73.6484 36.8751 72.4462L42.0474 65.9906C42.1852 65.8187 42.2945 65.6377 42.3774 65.4517H52.0177C58.6621 65.4517 64.0485 60.0654 64.0485 53.421V38.4018C64.0485 31.7574 58.6621 26.3711 52.0177 26.3711H17.977Z" fill="#FE636B"/>
<ellipse cx="34.9974" cy="83.7811" rx="13.8338" ry="2.07508" fill="#FDCDD1"/>
<path fill-rule="evenodd" clip-rule="evenodd" d="M29.0212 34.328C26.6639 34.328 24.6589 35.1705 23.2534 36.7068C21.8608 38.2267 21.1636 40.3082 21.1636 42.6117C21.1636 46.6132 23.211 49.8015 25.8117 52.2813C28.4014 54.7501 31.6589 56.6278 34.3555 58.032C34.5526 58.1349 34.7717 58.1889 34.9942 58.1896C35.2167 58.1902 35.4361 58.1374 35.6338 58.0357C38.3323 56.6462 41.5879 54.7537 44.1794 52.2721C46.7802 49.785 48.8313 46.5857 48.8313 42.6117C48.8313 40.299 48.1304 38.2193 46.7359 36.6995C45.3285 35.1668 43.3236 34.3262 40.9736 34.3262C38.9889 34.3262 37.3473 35.0585 36.0986 36.4389C35.672 36.9173 35.3025 37.4433 34.9974 38.0064C34.6924 37.4433 34.3229 36.9173 33.8962 36.4389C32.6475 35.0585 31.0059 34.328 29.0212 34.328Z" fill="white"/>
</svg>
